<?xml version="1.0" standalone="yes"?>

<svg version="1.1" viewBox="0.0 0.0 305.0 592.0" fill="none" stroke="none" stroke-linecap="square" stroke-miterlimit="10" xmlns="http://www.w3.org/2000/svg" xmlns:xlink="http://www.w3.org/1999/xlink"><clipPath id="p.0"><path d="m0 0l305.0 0l0 592.0l-305.0 0l0 -592.0z" clip-rule="nonzero"></path></clipPath><g clip-path="url(#p.0)"><path fill="#000000" fill-opacity="0.0" d="m0 0l305.72177 0l0 592.6142l-305.72177 0z" fill-rule="nonzero"></path><path fill="#cfe2f3" d="m109.65879 55.884514l0 0c0 -20.804176 16.86512 -37.66929 37.66929 -37.66929l0 0c9.990524 0 19.571854 3.9687176 26.636215 11.033079c7.0643616 7.0643616 11.033081 16.645695 11.033081 26.636211l0 0c0 20.804176 -16.865112 37.66929 -37.669296 37.66929l0 0c-20.804169 0 -37.66929 -16.865112 -37.66929 -37.66929z" fill-rule="nonzero"></path><path stroke="#000000" stroke-width="2.0" stroke-linejoin="round" stroke-linecap="butt" d="m109.65879 55.884514l0 0c0 -20.804176 16.86512 -37.66929 37.66929 -37.66929l0 0c9.990524 0 19.571854 3.9687176 26.636215 11.033079c7.0643616 7.0643616 11.033081 16.645695 11.033081 26.636211l0 0c0 20.804176 -16.865112 37.66929 -37.669296 37.66929l0 0c-20.804169 0 -37.66929 -16.865112 -37.66929 -37.66929z" fill-rule="nonzero"></path><path fill="#000000" d="m150.35152 66.45483l-2.8125 0l0 -17.921875q-1.015625 0.96875 -2.671875 1.9375q-1.640625 0.96875 -2.953125 1.453125l0 -2.71875q2.359375 -1.109375 4.125 -2.6875q1.765625 -1.578125 2.5 -3.0625l1.8125 0l0 23.0z" fill-rule="nonzero"></path><path fill="#cfe2f3" d="m109.65879 173.29921l0 0c0 -20.804169 16.86512 -37.66928 37.66929 -37.66928l0 0c9.990524 0 19.571854 3.9687042 26.636215 11.033066c7.0643616 7.064377 11.033081 16.645706 11.033081 26.636215l0 0c0 20.804184 -16.865112 37.669296 -37.669296 37.669296l0 0c-20.804169 0 -37.66929 -16.865112 -37.66929 -37.669296z" fill-rule="nonzero"></path><path stroke="#000000" stroke-width="2.0" stroke-linejoin="round" stroke-linecap="butt" d="m109.65879 173.29921l0 0c0 -20.804169 16.86512 -37.66928 37.66929 -37.66928l0 0c9.990524 0 19.571854 3.9687042 26.636215 11.033066c7.0643616 7.064377 11.033081 16.645706 11.033081 26.636215l0 0c0 20.804184 -16.865112 37.669296 -37.669296 37.669296l0 0c-20.804169 0 -37.66929 -16.865112 -37.66929 -37.669296z" fill-rule="nonzero"></path><path fill="#000000" d="m154.53902 181.1664l0 2.703125l-15.140625 0q-0.03125 -1.015625 0.328125 -1.953125q0.578125 -1.546875 1.84375 -3.046875q1.28125 -1.5 3.6875 -3.46875q3.734375 -3.0625 5.046875 -4.84375q1.3125 -1.796875 1.3125 -3.390625q0 -1.671875 -1.203125 -2.8125q-1.1875 -1.15625 -3.109375 -1.15625q-2.03125 0 -3.25 1.21875q-1.21875 1.21875 -1.234375 3.375l-2.890625 -0.296875q0.296875 -3.234375 2.234375 -4.921875q1.9375 -1.703125 5.203125 -1.703125q3.296875 0 5.21875 1.828125q1.921875 1.828125 1.921875 4.53125q0 1.375 -0.5625 2.703125q-0.5625 1.328125 -1.875 2.796875q-1.296875 1.46875 -4.328125 4.03125q-2.53125 2.125 -3.25 2.890625q-0.71875 0.75 -1.1875 1.515625l11.234375 0z" fill-rule="nonzero"></path><path fill="#cfe2f3" d="m17.47244 276.43832l0 0c0 -20.804184 16.865118 -37.669296 37.66929 -37.669296l0 0c9.990517 0 19.571854 3.9687195 26.636215 11.033081c7.0643616 7.064377 11.033073 16.645706 11.033073 26.636215l0 0c0 20.804169 -16.865112 37.66928 -37.66929 37.66928l0 0c-20.804173 0 -37.66929 -16.865112 -37.66929 -37.66928z" fill-rule="nonzero"></path><path stroke="#000000" stroke-width="2.0" stroke-linejoin="round" stroke-linecap="butt" d="m17.47244 276.43832l0 0c0 -20.804184 16.865118 -37.669296 37.66929 -37.669296l0 0c9.990517 0 19.571854 3.9687195 26.636215 11.033081c7.0643616 7.064377 11.033073 16.645706 11.033073 26.636215l0 0c0 20.804169 -16.865112 37.66928 -37.66929 37.66928l0 0c-20.804173 0 -37.66929 -16.865112 -37.66929 -37.66928z" fill-rule="nonzero"></path><path fill="#000000" d="m47.587044 280.96176l2.8125 -0.375q0.484375 2.390625 1.640625 3.453125q1.171875 1.046875 2.84375 1.046875q1.984375 0 3.34375 -1.375q1.375 -1.375 1.375 -3.40625q0 -1.9375 -1.265625 -3.1875q-1.265625 -1.265625 -3.21875 -1.265625q-0.796875 0 -1.984375 0.3125l0.3125 -2.46875q0.28125 0.03125 0.453125 0.03125q1.796875 0 3.234375 -0.9375q1.4375 -0.9375 1.4375 -2.890625q0 -1.546875 -1.046875 -2.5625q-1.046875 -1.015625 -2.703125 -1.015625q-1.640625 0 -2.734375 1.03125q-1.09375 1.03125 -1.40625 3.09375l-2.8125 -0.5q0.515625 -2.828125 2.34375 -4.375q1.828125 -1.5625 4.546875 -1.5625q1.875 0 3.453125 0.8125q1.578125 0.796875 2.40625 2.1875q0.84375 1.390625 0.84375 2.953125q0 1.484375 -0.796875 2.703125q-0.796875 1.21875 -2.359375 1.9375q2.03125 0.46875 3.15625 1.953125q1.125 1.46875 1.125 3.6875q0 3.0 -2.1875 5.09375q-2.1875 2.078125 -5.53125 2.078125q-3.015625 0 -5.015625 -1.796875q-1.984375 -1.796875 -2.265625 -4.65625z" fill-rule="nonzero"></path><path fill="#cfe2f3" d="m192.2441 276.43832l0 0c0 -20.804184 16.865112 -37.669296 37.669296 -37.669296l0 0c9.990509 0 19.571838 3.9687195 26.6362 11.033081c7.0643616 7.064377 11.033081 16.645706 11.033081 26.636215l0 0c0 20.804169 -16.865112 37.66928 -37.66928 37.66928l0 0c-20.804184 0 -37.669296 -16.865112 -37.669296 -37.66928z" fill-rule="nonzero"></path><path stroke="#000000" stroke-width="2.0" stroke-linejoin="round" stroke-linecap="butt" d="m192.2441 276.43832l0 0c0 -20.804184 16.865112 -37.669296 37.669296 -37.669296l0 0c9.990509 0 19.571838 3.9687195 26.6362 11.033081c7.0643616 7.064377 11.033081 16.645706 11.033081 26.636215l0 0c0 20.804169 -16.865112 37.66928 -37.66928 37.66928l0 0c-20.804184 0 -37.669296 -16.865112 -37.669296 -37.66928z" fill-rule="nonzero"></path><path fill="#000000" d="m231.3587 287.00864l0 -5.484375l-9.9375 0l0 -2.578125l10.453125 -14.84375l2.296875 0l0 14.84375l3.09375 0l0 2.578125l-3.09375 0l0 5.484375l-2.8125 0zm0 -8.0625l0 -10.328125l-7.171875 10.328125l7.171875 0z" fill-rule="nonzero"></path><path fill="#cfe2f3" d="m17.47244 412.93176l0 0c0 -20.804169 16.865118 -37.66928 37.66929 -37.66928l0 0c9.990517 0 19.571854 3.968689 26.636215 11.033051c7.0643616 7.064392 11.033073 16.645721 11.033073 26.63623l0 0c0 20.804169 -16.865112 37.66928 -37.66929 37.66928l0 0c-20.804173 0 -37.66929 -16.865112 -37.66929 -37.66928z" fill-rule="nonzero"></path><path stroke="#000000" stroke-width="2.0" stroke-linejoin="round" stroke-linecap="butt" d="m17.47244 412.93176l0 0c0 -20.804169 16.865118 -37.66928 37.66929 -37.66928l0 0c9.990517 0 19.571854 3.968689 26.636215 11.033051c7.0643616 7.064392 11.033073 16.645721 11.033073 26.63623l0 0c0 20.804169 -16.865112 37.66928 -37.66929 37.66928l0 0c-20.804173 0 -37.66929 -16.865112 -37.66929 -37.66928z" fill-rule="nonzero"></path><path fill="#000000" d="m47.57142 417.50208l2.953125 -0.25q0.328125 2.15625 1.515625 3.25q1.203125 1.078125 2.890625 1.078125q2.03125 0 3.4375 -1.53125q1.40625 -1.53125 1.40625 -4.0625q0 -2.40625 -1.359375 -3.796875q-1.34375 -1.390625 -3.53125 -1.390625q-1.359375 0 -2.453125 0.625q-1.09375 0.609375 -1.71875 1.59375l-2.640625 -0.34375l2.21875 -11.765625l11.390625 0l0 2.6875l-9.140625 0l-1.234375 6.15625q2.0625 -1.4375 4.328125 -1.4375q3.0 0 5.0625 2.078125q2.0625 2.078125 2.0625 5.34375q0 3.109375 -1.8125 5.375q-2.203125 2.78125 -6.015625 2.78125q-3.125 0 -5.109375 -1.75q-1.96875 -1.75 -2.25 -4.640625z" fill-rule="nonzero"></path><path fill="#cfe2f3" d="m192.2441 412.93176l0 0c0 -20.804169 16.865112 -37.66928 37.669296 -37.66928l0 0c9.990509 0 19.571838 3.968689 26.6362 11.033051c7.0643616 7.064392 11.033081 16.645721 11.033081 26.63623l0 0c0 20.804169 -16.865112 37.66928 -37.66928 37.66928l0 0c-20.804184 0 -37.669296 -16.865112 -37.669296 -37.66928z" fill-rule="nonzero"></path><path stroke="#000000" stroke-width="2.0" stroke-linejoin="round" stroke-linecap="butt" d="m192.2441 412.93176l0 0c0 -20.804169 16.865112 -37.66928 37.669296 -37.66928l0 0c9.990509 0 19.571838 3.968689 26.6362 11.033051c7.0643616 7.064392 11.033081 16.645721 11.033081 26.63623l0 0c0 20.804169 -16.865112 37.66928 -37.66928 37.66928l0 0c-20.804184 0 -37.669296 -16.865112 -37.669296 -37.66928z" fill-rule="nonzero"></path><path fill="#000000" d="m236.93683 406.2052l-2.796875 0.21875q-0.375 -1.65625 -1.0625 -2.40625q-1.140625 -1.203125 -2.8125 -1.203125q-1.34375 0 -2.359375 0.75q-1.328125 0.96875 -2.09375 2.828125q-0.765625 1.859375 -0.796875 5.296875q1.015625 -1.546875 2.484375 -2.296875q1.46875 -0.75 3.078125 -0.75q2.8125 0 4.78125 2.078125q1.984375 2.0625 1.984375 5.34375q0 2.15625 -0.9375 4.015625q-0.921875 1.84375 -2.546875 2.828125q-1.625 0.984375 -3.6875 0.984375q-3.515625 0 -5.734375 -2.578125q-2.21875 -2.59375 -2.21875 -8.53125q0 -6.640625 2.453125 -9.65625q2.140625 -2.625 5.765625 -2.625q2.703125 0 4.421875 1.515625q1.734375 1.515625 2.078125 4.1875zm-11.484375 9.875q0 1.453125 0.609375 2.78125q0.625 1.328125 1.734375 2.03125q1.109375 0.6875 2.328125 0.6875q1.78125 0 3.0625 -1.4375q1.28125 -1.4375 1.28125 -3.90625q0 -2.375 -1.265625 -3.734375q-1.265625 -1.375 -3.1875 -1.375q-1.90625 0 -3.234375 1.375q-1.328125 1.359375 -1.328125 3.578125z" fill-rule="nonzero"></path><path fill="#cfe2f3" d="m109.65879 519.88715l0 0c0 -20.804169 16.86512 -37.66931 37.66929 -37.66931l0 0c9.990524 0 19.571854 3.9687195 26.636215 11.033081c7.0643616 7.0643616 11.033081 16.645721 11.033081 26.63623l0 0c0 20.804138 -16.865112 37.66931 -37.669296 37.66931l0 0c-20.804169 0 -37.66929 -16.865173 -37.66929 -37.66931z" fill-rule="nonzero"></path><path stroke="#000000" stroke-width="2.0" stroke-linejoin="round" stroke-linecap="butt" d="m109.65879 519.88715l0 0c0 -20.804169 16.86512 -37.66931 37.66929 -37.66931l0 0c9.990524 0 19.571854 3.9687195 26.636215 11.033081c7.0643616 7.0643616 11.033081 16.645721 11.033081 26.63623l0 0c0 20.804138 -16.865112 37.66931 -37.669296 37.66931l0 0c-20.804169 0 -37.66929 -16.865173 -37.66929 -37.66931z" fill-rule="nonzero"></path><path fill="#000000" d="m139.94527 510.5512l0 -2.703125l14.828125 0l0 2.1875q-2.1875 2.328125 -4.34375 6.1875q-2.140625 3.859375 -3.3125 7.9375q-0.84375 2.875 -1.078125 6.296875l-2.890625 0q0.046875 -2.703125 1.0625 -6.53125q1.015625 -3.828125 2.90625 -7.375q1.90625 -3.5625 4.046875 -6.0l-11.21875 0z" fill-rule="nonzero"></path><path fill="#000000" fill-opacity="0.0" d="m147.32808 93.5538l0 42.076126" fill-rule="nonzero"></path><path stroke="#000000" stroke-width="2.0" stroke-linejoin="round" stroke-linecap="butt" d="m147.32808 93.5538l0 30.076118" fill-rule="evenodd"></path><path fill="#000000" stroke="#000000" stroke-width="2.0" stroke-linecap="butt" d="m144.02461 123.62992l3.3034668 9.076195l3.3034668 -9.076195z" fill-rule="evenodd"></path><path fill="#000000" fill-opacity="0.0" d="m173.9643 199.93542l55.949097 38.833603" fill-rule="nonzero"></path><path stroke="#000000" stroke-width="2.0" stroke-linejoin="round" stroke-linecap="butt" d="m173.9643 199.93542l46.091003 31.991226" fill-rule="evenodd"></path><path fill="#000000" stroke="#000000" stroke-width="2.0" stroke-linecap="butt" d="m218.17168 234.64047l9.339783 2.4614105l-5.572525 -7.8890533z" fill-rule="evenodd"></path><path fill="#000000" fill-opacity="0.0" d="m120.69187 199.93542l-65.55014 38.833603" fill-rule="nonzero"></path><path stroke="#000000" stroke-width="2.0" stroke-linejoin="round" stroke-linecap="butt" d="m120.691864 199.93542l-55.225876 32.717255" fill-rule="evenodd"></path><path fill="#000000" stroke="#000000" stroke-width="2.0" stroke-linecap="butt" d="m63.782223 229.81052l-6.124981 7.4682617l9.492508 -1.7839508z" fill-rule="evenodd"></path><path fill="#000000" fill-opacity="0.0" d="m55.14173 314.1076l0 61.154877" fill-rule="nonzero"></path><path stroke="#000000" stroke-width="2.0" stroke-linejoin="round" stroke-linecap="butt" d="m55.14173 314.1076l0 49.154877" fill-rule="evenodd"></path><path fill="#000000" stroke="#000000" stroke-width="2.0" stroke-linecap="butt" d="m51.83827 363.26248l3.303463 9.076172l3.3034668 -9.076172z" fill-rule="evenodd"></path><path fill="#000000" fill-opacity="0.0" d="m229.91339 314.1076l0 61.154877" fill-rule="nonzero"></path><path stroke="#000000" stroke-width="2.0" stroke-linejoin="round" stroke-linecap="butt" d="m229.91339 314.1076l0 49.154877" fill-rule="evenodd"></path><path fill="#000000" stroke="#000000" stroke-width="2.0" stroke-linecap="butt" d="m226.60992 363.26248l3.3034668 9.076172l3.3034668 -9.076172z" fill-rule="evenodd"></path><path fill="#000000" fill-opacity="0.0" d="m229.91339 450.60104l-55.949097 42.64987" fill-rule="nonzero"></path><path stroke="#000000" stroke-width="2.0" stroke-linejoin="round" stroke-linecap="butt" d="m229.91339 450.60104l-46.405716 35.375" fill-rule="evenodd"></path><path fill="#000000" stroke="#000000" stroke-width="2.0" stroke-linecap="butt" d="m181.50497 483.34888l-5.2154236 8.129547l9.22081 -2.875183z" fill-rule="evenodd"></path><path fill="#000000" fill-opacity="0.0" d="m55.14173 450.60104l65.55014 42.64987" fill-rule="nonzero"></path><path stroke="#000000" stroke-width="2.0" stroke-linejoin="round" stroke-linecap="butt" d="m55.14173 450.60104l55.491776 36.1055" fill-rule="evenodd"></path><path fill="#000000" stroke="#000000" stroke-width="2.0" stroke-linecap="butt" d="m108.83191 489.47546l9.409233 2.1809387l-5.8060226 -7.7188416z" fill-rule="evenodd"></path></g></svg>

