<?xml version="1.0" encoding="utf-8"?>
<!-- Generator: Adobe Illustrator 16.0.0, SVG Export Plug-In . SVG Version: 6.00 Build 0)  -->
<!DOCTYPE svg PUBLIC "-//W3C//DTD SVG 1.1//EN" "http://www.w3.org/Graphics/SVG/1.1/DTD/svg11.dtd">
<svg version="1.1" id="Ebene_1" xmlns="http://www.w3.org/2000/svg" xmlns:xlink="http://www.w3.org/1999/xlink" x="0px" y="0px"
	 width="960px" height="560px" viewBox="0 0 960 560" enable-background="new 0 0 960 560" xml:space="preserve">
<g>
	<path fill="#FFFFFF" d="M106.784,407.978c0,0,167.27-88.689,337.069-72.814"/>
	<path d="M106.676,407.77c0,0,19.229-10.4,49.49-22.959c7.555-3.157,15.797-6.438,24.579-9.754
		c4.392-1.652,8.909-3.336,13.563-4.954c4.635-1.675,9.411-3.271,14.262-4.906c4.85-1.646,9.827-3.176,14.842-4.796
		c5.053-1.502,10.138-3.117,15.319-4.57c5.176-1.46,10.383-2.977,15.66-4.32c2.634-0.689,5.272-1.384,7.913-2.078l7.966-1.931
		c10.619-2.615,21.321-4.887,31.891-6.957c5.285-1.037,10.559-1.906,15.76-2.814c5.215-0.829,10.383-1.549,15.459-2.306
		c5.102-0.571,10.118-1.134,15.028-1.685c4.918-0.476,9.741-0.828,14.432-1.182c9.395-0.554,18.284-0.968,26.499-0.945
		c2.053-0.02,4.062-0.035,6.026-0.054c1.963,0,3.884,0.101,5.753,0.144c3.739,0.11,7.284,0.217,10.616,0.316
		c6.656,0.399,12.454,0.763,17.215,1.202c9.516,1.03,14.928,1.707,14.928,1.707l-0.044,0.465c0,0-5.463-0.135-14.979-0.524
		c-4.76-0.045-10.541-0.103-17.174-0.164c-6.629,0.186-14.103,0.184-22.242,0.66c-8.144,0.301-16.946,0.979-26.247,1.722
		c-4.645,0.452-9.415,0.915-14.292,1.39c-4.863,0.587-9.834,1.187-14.886,1.795c-5.043,0.7-10.179,1.345-15.365,2.107
		c-5.169,0.861-10.429,1.584-15.696,2.515c-10.539,1.842-21.221,3.879-31.833,6.268l-7.955,1.792
		c-2.64,0.646-5.275,1.296-7.905,1.941c-5.273,1.251-10.479,2.678-15.657,4.048c-5.181,1.362-10.271,2.892-15.328,4.305
		c-5.02,1.535-10.005,2.977-14.864,4.539c-9.736,3.063-19.082,6.233-27.906,9.35c-8.825,3.116-17.116,6.213-24.723,9.201
		c-7.619,2.953-14.529,5.846-20.647,8.424c-6.1,2.627-11.4,4.955-15.727,6.958c-8.673,3.968-13.514,6.47-13.514,6.47L106.676,407.77
		z"/>
</g>
<path fill="#FFFFFF" stroke="#000000" stroke-width="3" stroke-miterlimit="10" d="M148.184,218.996
	c54.339,61.109,67.13,142.822,67.13,142.822"/>
<path fill="#FFFFFF" stroke="#000000" stroke-width="3" stroke-miterlimit="10" d="M215.315,365.025"/>
<path fill="#FFFFFF" stroke="#000000" stroke-width="3" stroke-miterlimit="10" d="M215.315,361.896"/>
<path fill="#FFFFFF" stroke="#000000" stroke-width="3" stroke-miterlimit="10" d="M246.724,351.732"/>
<g>
	<path fill="#FFFFFF" d="M252.61,350.932c-2.11-67.232-5.774-146.659-43.373-157.202"/>
	<path d="M252.61,350.932c0,0-0.254-2.662-0.701-7.319c-0.39-4.656-0.947-11.31-1.615-19.289
		c-0.656-7.979-1.392-17.277-2.314-27.212c-0.424-4.973-1.024-10.088-1.563-15.289c-0.579-5.196-1.22-10.466-2.022-15.707
		c-1.447-10.502-3.47-20.897-5.998-30.445c-1.345-4.747-2.779-9.292-4.409-13.494c-1.711-4.161-3.511-8.02-5.514-11.385
		c-0.488-0.848-1.051-1.621-1.557-2.41c-0.502-0.793-1.024-1.542-1.584-2.232c-0.545-0.708-1.073-1.397-1.59-2.067
		c-0.573-0.62-1.128-1.22-1.667-1.804c-0.271-0.294-0.537-0.582-0.798-0.866c-0.287-0.254-0.568-0.506-0.847-0.752
		c-0.555-0.498-1.09-0.977-1.604-1.437c-1.07-0.869-2.134-1.566-3.062-2.259c-1.003-0.571-1.897-1.083-2.677-1.527
		c-0.771-0.482-1.516-0.685-2.08-0.957c-1.154-0.488-1.77-0.75-1.77-0.75s0.645,0.176,1.854,0.508
		c1.241,0.269,2.964,0.938,5.133,1.913c1.02,0.596,2.199,1.199,3.407,1.977c0.582,0.424,1.186,0.863,1.814,1.319
		c0.313,0.231,0.631,0.467,0.955,0.709c0.299,0.269,0.602,0.543,0.911,0.82c2.588,2.123,5.005,5.033,7.418,8.343
		c2.354,3.358,4.513,7.24,6.48,11.482c1.912,4.263,3.66,8.864,5.154,13.715c1.432,4.862,2.833,9.911,3.877,15.114
		c1.062,5.197,2.029,10.495,2.796,15.814c0.757,5.321,1.352,10.657,1.882,15.908c0.522,5.254,0.867,10.437,1.17,15.447
		c0.331,5.011,0.485,9.859,0.639,14.454c0.158,4.594,0.213,8.939,0.246,12.949c0.075,8.02-0.035,14.703-0.139,19.379
		C252.723,348.258,252.61,350.932,252.61,350.932z"/>
</g>
<path fill="#FFFFFF" stroke="#000000" stroke-width="3" stroke-miterlimit="10" d="M215.315,361.896"/>
<g>
	<path fill="#FFFFFF" d="M217.457,365.014c0,0-24.552-67.5-2.086-98.058"/>
	<path d="M217.457,365.014c0,0-2.909-5.692-5.913-14.774c-0.766-2.266-1.542-4.736-2.271-7.378
		c-0.733-2.642-1.492-5.436-2.116-8.363s-1.307-5.954-1.762-9.073c-0.503-3.11-0.894-6.295-1.236-9.485
		c-0.257-3.201-0.437-6.412-0.479-9.584c-0.015-1.588-0.039-3.159,0.064-4.718c0.06-1.555,0.142-3.09,0.293-4.6
		c0.214-3.021,0.689-5.929,1.253-8.653c0.538-2.73,1.263-5.273,2.083-7.564c0.361-1.156,0.824-2.231,1.264-3.248
		c0.222-0.507,0.437-1,0.646-1.481c0.244-0.463,0.482-0.915,0.712-1.352c0.859-1.773,1.847-3.188,2.627-4.352
		c0.752-1.181,1.568-1.962,2.015-2.553c0.479-0.571,0.734-0.875,0.734-0.875s-0.182,0.355-0.522,1.018
		c-0.319,0.676-0.883,1.602-1.415,2.873c-0.544,1.266-1.206,2.783-1.785,4.596c-0.155,0.446-0.313,0.908-0.478,1.382
		c-0.128,0.487-0.26,0.987-0.396,1.502c-0.269,1.025-0.607,2.081-0.811,3.23c-0.227,1.141-0.521,2.307-0.669,3.556
		c-0.174,1.241-0.438,2.5-0.546,3.83c-0.143,1.321-0.31,2.672-0.363,4.073c-0.083,1.394-0.207,2.812-0.222,4.267
		c-0.142,2.899-0.012,5.909,0.05,8.961c0.091,3.057,0.327,6.161,0.618,9.261c0.281,3.104,0.607,6.208,1.044,9.254
		c0.425,3.047,0.836,6.054,1.33,8.949c0.51,2.899,1.001,5.7,1.468,8.355c0.52,2.653,1.011,5.163,1.465,7.48
		c0.953,4.631,1.775,8.498,2.375,11.204C217.114,363.463,217.457,365.014,217.457,365.014z"/>
</g>
<path fill="#FFFFFF" stroke="#000000" stroke-width="3" stroke-miterlimit="10" d="M275.46,94.643
	c31.194-12.197,31.188-61.095,31.188-61.095h-27.553C257.295,83.62,275.46,94.643,275.46,94.643
	c-41.085,135.706-19.913,262.833-20.971,257.983"/>
<path fill="#FFFFFF" stroke="#000000" stroke-width="3" stroke-miterlimit="10" d="M147.013,217.177c0,0-15.749,7.998-36.576-28.2"
	/>
<path fill="#FFFFFF" stroke="#000000" stroke-width="2" stroke-miterlimit="10" d="M304.04,398.404"/>
<path fill="#FFFFFF" stroke="#000000" stroke-width="3" stroke-miterlimit="10" d="M113.141,190.541l9.936-18.889
	c0,0,32.143,21.88,25.5,47.09"/>
<polygon fill="none" points="956.898,252.561 298.823,318.873 301.432,222.126 972.023,102.079 "/>
<text transform="matrix(1 0 0 1 301.0977 308.9668)" font-family="'SinhalaMN'" font-size="156.4745">Blomma</text>
<polygon fill="none" points="481.9,327.981 1099.291,207.934 1099.291,370.667 481.9,490.715 "/>
<text transform="matrix(1 0 0 1 447.8994 387.6758)" font-family="'SinhalaMN-Bold'" font-size="109.5322">Graphs</text>
<polyline fill="#FFFFFF" stroke="#000000" stroke-miterlimit="10" points="304.04,378.574 265.931,391.092 238.527,423.952 
	212.762,406.739 216.058,362.927 264.366,392.656 254.489,355.104 "/>
<line fill="none" stroke="#000000" stroke-miterlimit="10" x1="212.271" y1="406.413" x2="177.817" y2="428.646"/>
<line fill="none" stroke="#000000" stroke-miterlimit="10" x1="238.527" y1="423.952" x2="270.137" y2="448.987"/>
<g>
	<line fill="none" x1="312.385" y1="416.128" x2="265.931" y2="392.656"/>
	<path d="M312.351,416.198c0,0-11.769-5.562-23.475-11.246c-2.935-1.404-5.88-2.789-8.613-4.143
		c-1.351-0.709-2.675-1.357-3.897-2.04c-1.227-0.671-2.386-1.306-3.457-1.892c-1.073-0.582-2.031-1.166-2.893-1.658
		c-0.862-0.492-1.607-0.934-2.214-1.311c-1.222-0.738-1.907-1.186-1.907-1.186l0.07-0.141c0,0,0.767,0.288,2.086,0.833
		c0.663,0.264,1.462,0.604,2.369,1.004c0.907,0.403,1.945,0.828,3.049,1.346c1.108,0.517,2.307,1.072,3.574,1.662
		c1.274,0.578,2.58,1.261,3.953,1.925c2.71,1.398,5.572,2.947,8.443,4.477c11.523,6.05,22.979,12.225,22.979,12.225L312.351,416.198
		z"/>
</g>
<circle stroke="#000000" stroke-miterlimit="10" cx="264.904" cy="391.631" r="4.915"/>
<circle stroke="#000000" stroke-miterlimit="10" cx="255.516" cy="354.076" r="4.914"/>
<circle stroke="#000000" stroke-miterlimit="10" cx="214.833" cy="363.465" r="4.914"/>
<circle stroke="#000000" stroke-miterlimit="10" cx="213.268" cy="407.278" r="4.915"/>
<circle stroke="#000000" stroke-miterlimit="10" cx="238.304" cy="421.361" r="4.915"/>
</svg>
