<?xml version="1.0" encoding="UTF-8"?><svg xmlns="http://www.w3.org/2000/svg" xmlns:xlink="http://www.w3.org/1999/xlink" style="fill-opacity:1; color-rendering:auto; color-interpolation:auto; stroke:black; text-rendering:auto; stroke-linecap:square; stroke-miterlimit:10; stroke-opacity:1; shape-rendering:auto; fill:black; stroke-dasharray:none; font-weight:normal; stroke-width:1; font-family:'Dialog'; font-style:normal; stroke-linejoin:miter; font-size:12px; stroke-dashoffset:0; image-rendering:auto;" width="809" height="899">
  <!--Generated by ySVG-->
  <defs id="genericDefs"/>
  <g>
    <defs id="defs1">
      <clipPath clipPathUnits="userSpaceOnUse" id="clipPath1">
        <path d="M0 0 L809 0 L809 899 L0 899 L0 0 Z"/>
      </clipPath>
      <clipPath clipPathUnits="userSpaceOnUse" id="clipPath2">
        <path d="M-388 -500 L421 -500 L421 399 L-388 399 L-388 -500 Z"/>
      </clipPath>
    </defs>
    <g style="fill:white; stroke:white;" transform="translate(388,500)">
      <rect x="-388" y="-500" width="809" style="clip-path:url(#clipPath2); stroke:none;" height="899"/>
    </g>
    <g style="fill:white; stroke:white;">
      <rect x="9.1719" y="875.875" width="110.6113" style="clip-path:url(#clipPath1); stroke:none;" height="15.625"/>
      <path d="M12.3594 879.2188 L12.3594 882.5156 L13.8438 882.5156 Q14.6719 882.5156 15.125 882.0859 Q15.5781 881.6562 15.5781 880.8594 Q15.5781 880.0781 15.125 879.6484 Q14.6719 879.2188 13.8438 879.2188 L12.3594 879.2188 ZM11.1719 878.25 L13.8438 878.25 Q15.3281 878.25 16.0781 878.9141 Q16.8281 879.5781 16.8281 880.8594 Q16.8281 882.1562 16.0781 882.8203 Q15.3281 883.4844 13.8438 883.4844 L12.3594 883.4844 L12.3594 887 L11.1719 887 L11.1719 878.25 ZM20.9082 881.1875 Q20.0488 881.1875 19.541 881.8672 Q19.0332 882.5469 19.0332 883.7188 Q19.0332 884.9062 19.5332 885.5781 Q20.0332 886.25 20.9082 886.25 Q21.7676 886.25 22.2754 885.5703 Q22.7832 884.8906 22.7832 883.7188 Q22.7832 882.5625 22.2754 881.875 Q21.7676 881.1875 20.9082 881.1875 ZM20.9082 880.2812 Q22.3145 880.2812 23.1191 881.1953 Q23.9238 882.1094 23.9238 883.7188 Q23.9238 885.3281 23.1191 886.25 Q22.3145 887.1719 20.9082 887.1719 Q19.502 887.1719 18.6973 886.25 Q17.8926 885.3281 17.8926 883.7188 Q17.8926 882.1094 18.6973 881.1953 Q19.502 880.2812 20.9082 880.2812 ZM25.0781 880.4375 L26.1562 880.4375 L27.5156 885.5625 L28.8438 880.4375 L30.125 880.4375 L31.4688 885.5625 L32.8125 880.4375 L33.8906 880.4375 L32.1719 887 L30.9062 887 L29.4844 881.625 L28.0781 887 L26.7969 887 L25.0781 880.4375 ZM41.1426 883.4531 L41.1426 883.9688 L36.1738 883.9688 Q36.252 885.0938 36.8535 885.6719 Q37.4551 886.25 38.5176 886.25 Q39.1426 886.25 39.7285 886.1016 Q40.3145 885.9531 40.8926 885.6406 L40.8926 886.6719 Q40.2988 886.9062 39.6895 887.0391 Q39.0801 887.1719 38.4551 887.1719 Q36.8926 887.1719 35.9707 886.2578 Q35.0488 885.3438 35.0488 883.7812 Q35.0488 882.1719 35.9238 881.2266 Q36.7988 880.2812 38.2676 880.2812 Q39.5957 880.2812 40.3691 881.1328 Q41.1426 881.9844 41.1426 883.4531 ZM40.0645 883.125 Q40.0488 882.25 39.5645 881.7188 Q39.0801 881.1875 38.2832 881.1875 Q37.377 881.1875 36.8379 881.7031 Q36.2988 882.2188 36.2207 883.1406 L40.0645 883.125 ZM46.7129 881.4375 Q46.5254 881.3438 46.3145 881.2891 Q46.1035 881.2344 45.8379 881.2344 Q44.9316 881.2344 44.4395 881.8281 Q43.9473 882.4219 43.9473 883.5469 L43.9473 887 L42.8691 887 L42.8691 880.4375 L43.9473 880.4375 L43.9473 881.4531 Q44.291 880.8594 44.8379 880.5703 Q45.3848 880.2812 46.166 880.2812 Q46.2754 880.2812 46.4082 880.2969 Q46.541 880.3125 46.6973 880.3438 L46.7129 881.4375 ZM53.459 883.4531 L53.459 883.9688 L48.4902 883.9688 Q48.5684 885.0938 49.1699 885.6719 Q49.7715 886.25 50.834 886.25 Q51.459 886.25 52.0449 886.1016 Q52.6309 885.9531 53.209 885.6406 L53.209 886.6719 Q52.6152 886.9062 52.0059 887.0391 Q51.3965 887.1719 50.7715 887.1719 Q49.209 887.1719 48.2871 886.2578 Q47.3652 885.3438 47.3652 883.7812 Q47.3652 882.1719 48.2402 881.2266 Q49.1152 880.2812 50.584 880.2812 Q51.9121 880.2812 52.6855 881.1328 Q53.459 881.9844 53.459 883.4531 ZM52.3809 883.125 Q52.3652 882.25 51.8809 881.7188 Q51.3965 881.1875 50.5996 881.1875 Q49.6934 881.1875 49.1543 881.7031 Q48.6152 882.2188 48.5371 883.1406 L52.3809 883.125 ZM59.5449 881.4375 L59.5449 877.875 L60.623 877.875 L60.623 887 L59.5449 887 L59.5449 886.0156 Q59.2012 886.5938 58.6855 886.8828 Q58.1699 887.1719 57.4355 887.1719 Q56.248 887.1719 55.498 886.2188 Q54.748 885.2656 54.748 883.7188 Q54.748 882.1719 55.498 881.2266 Q56.248 880.2812 57.4355 880.2812 Q58.1699 880.2812 58.6855 880.5625 Q59.2012 880.8438 59.5449 881.4375 ZM55.873 883.7188 Q55.873 884.9062 56.3574 885.5859 Q56.8418 886.2656 57.7012 886.2656 Q58.5605 886.2656 59.0527 885.5859 Q59.5449 884.9062 59.5449 883.7188 Q59.5449 882.5312 59.0527 881.8594 Q58.5605 881.1875 57.7012 881.1875 Q56.8418 881.1875 56.3574 881.8594 Q55.873 882.5312 55.873 883.7188 ZM71.3672 883.7188 Q71.3672 882.5312 70.875 881.8594 Q70.3828 881.1875 69.5391 881.1875 Q68.6797 881.1875 68.1875 881.8594 Q67.6953 882.5312 67.6953 883.7188 Q67.6953 884.9062 68.1875 885.5859 Q68.6797 886.2656 69.5391 886.2656 Q70.3828 886.2656 70.875 885.5859 Q71.3672 884.9062 71.3672 883.7188 ZM67.6953 881.4375 Q68.0391 880.8438 68.5547 880.5625 Q69.0703 880.2812 69.7891 880.2812 Q70.9922 880.2812 71.7422 881.2266 Q72.4922 882.1719 72.4922 883.7188 Q72.4922 885.2656 71.7422 886.2188 Q70.9922 887.1719 69.7891 887.1719 Q69.0703 887.1719 68.5547 886.8828 Q68.0391 886.5938 67.6953 886.0156 L67.6953 887 L66.6172 887 L66.6172 877.875 L67.6953 877.875 L67.6953 881.4375 ZM77 887.6094 Q76.5469 888.7812 76.1094 889.1406 Q75.6719 889.5 74.9531 889.5 L74.0938 889.5 L74.0938 888.5938 L74.7188 888.5938 Q75.1719 888.5938 75.4141 888.3828 Q75.6562 888.1719 75.9531 887.3906 L76.1562 886.8906 L73.5 880.4375 L74.6406 880.4375 L76.6875 885.5625 L78.75 880.4375 L79.8906 880.4375 L77 887.6094 ZM87.916 887.6094 Q87.4629 888.7812 87.0254 889.1406 Q86.5879 889.5 85.8691 889.5 L85.0098 889.5 L85.0098 888.5938 L85.6348 888.5938 Q86.0879 888.5938 86.3301 888.3828 Q86.5723 888.1719 86.8691 887.3906 L87.0723 886.8906 L84.416 880.4375 L85.5566 880.4375 L87.6035 885.5625 L89.666 880.4375 L90.8066 880.4375 L87.916 887.6094 ZM92.3301 878.25 L97.3613 878.25 L97.3613 879.25 L93.5176 879.25 L93.5176 881.8281 L96.9863 881.8281 L96.9863 882.8281 L93.5176 882.8281 L93.5176 887 L92.3301 887 L92.3301 878.25 ZM99.1855 880.4375 L100.2637 880.4375 L100.2637 887 L99.1855 887 L99.1855 880.4375 ZM99.1855 877.875 L100.2637 877.875 L100.2637 879.25 L99.1855 879.25 L99.1855 877.875 ZM102.5195 877.875 L103.5977 877.875 L103.5977 887 L102.5195 887 L102.5195 877.875 ZM111.4785 883.4531 L111.4785 883.9688 L106.5098 883.9688 Q106.5879 885.0938 107.1895 885.6719 Q107.791 886.25 108.8535 886.25 Q109.4785 886.25 110.0645 886.1016 Q110.6504 885.9531 111.2285 885.6406 L111.2285 886.6719 Q110.6348 886.9062 110.0254 887.0391 Q109.416 887.1719 108.791 887.1719 Q107.2285 887.1719 106.3066 886.2578 Q105.3848 885.3438 105.3848 883.7812 Q105.3848 882.1719 106.2598 881.2266 Q107.1348 880.2812 108.6035 880.2812 Q109.9316 880.2812 110.7051 881.1328 Q111.4785 881.9844 111.4785 883.4531 ZM110.4004 883.125 Q110.3848 882.25 109.9004 881.7188 Q109.416 881.1875 108.6191 881.1875 Q107.7129 881.1875 107.1738 881.7031 Q106.6348 882.2188 106.5566 883.1406 L110.4004 883.125 ZM117.4238 880.625 L117.4238 881.6562 Q116.9707 881.4219 116.4785 881.3047 Q115.9863 881.1875 115.4551 881.1875 Q114.6582 881.1875 114.252 881.4297 Q113.8457 881.6719 113.8457 882.1719 Q113.8457 882.5469 114.1348 882.7578 Q114.4238 882.9688 115.2988 883.1562 L115.6582 883.25 Q116.8145 883.4844 117.2988 883.9375 Q117.7832 884.3906 117.7832 885.1875 Q117.7832 886.1094 117.0566 886.6406 Q116.3301 887.1719 115.0645 887.1719 Q114.5332 887.1719 113.9629 887.0703 Q113.3926 886.9688 112.7676 886.7656 L112.7676 885.6406 Q113.3613 885.9531 113.9395 886.1094 Q114.5176 886.2656 115.0957 886.2656 Q115.8457 886.2656 116.2598 886.0078 Q116.6738 885.75 116.6738 885.2656 Q116.6738 884.8281 116.377 884.5938 Q116.0801 884.3594 115.0801 884.1406 L114.7051 884.0625 Q113.7051 883.8438 113.2598 883.4062 Q112.8145 882.9688 112.8145 882.2188 Q112.8145 881.2812 113.4707 880.7812 Q114.127 880.2812 115.3301 880.2812 Q115.9238 880.2812 116.4551 880.3672 Q116.9863 880.4531 117.4238 880.625 Z" style="fill:silver; clip-path:url(#clipPath1); stroke:none;"/>
    </g>
    <g style="fill:rgb(51,51,51); stroke:rgb(51,51,51);" transform="matrix(1,0,0,1,388,500)">
      <rect x="-28.8125" y="357.9583" width="5" style="clip-path:url(#clipPath2); stroke:none;" height="5"/>
      <rect x="-28.8125" y="371.9583" width="5" style="clip-path:url(#clipPath2); stroke:none;" height="5"/>
      <rect x="-28.8125" y="385.9583" width="5" style="clip-path:url(#clipPath2); stroke:none;" height="5"/>
      <rect x="2.6875" y="385.9583" width="5" style="clip-path:url(#clipPath2); stroke:none;" height="5"/>
      <rect x="2.6875" y="357.9583" width="5" style="clip-path:url(#clipPath2); stroke:none;" height="5"/>
      <rect x="34.1875" y="357.9583" width="5" style="clip-path:url(#clipPath2); stroke:none;" height="5"/>
      <rect x="34.1875" y="371.9583" width="5" style="clip-path:url(#clipPath2); stroke:none;" height="5"/>
      <rect x="34.1875" y="385.9583" width="5" style="clip-path:url(#clipPath2); stroke:none;" height="5"/>
      <rect x="-22.8125" y="363.9583" width="55" style="clip-path:url(#clipPath2); fill:rgb(142,142,178); stroke:none;" height="20"/>
      <text x="-12.3125" y="378.1146" style="clip-path:url(#clipPath2); fill:black; font-family:sans-serif; stroke:none;" xml:space="preserve">21(1)</text>
    </g>
    <g style="stroke-miterlimit:1.45; font-family:sans-serif; stroke-linecap:butt;" transform="matrix(1,0,0,1,388,500)">
      <rect x="-22.8125" y="363.9583" width="55" style="clip-path:url(#clipPath2); fill:none;" height="20"/>
    </g>
    <g style="fill:rgb(204,204,255); font-family:sans-serif; stroke:rgb(204,204,255);" transform="matrix(1,0,0,1,388,500)">
      <rect x="322.5" y="-49.0625" width="55" style="clip-path:url(#clipPath2); stroke:none;" height="20"/>
      <text x="333" y="-34.9062" style="clip-path:url(#clipPath2); fill:black; stroke:none;" xml:space="preserve">20(5)</text>
    </g>
    <g style="stroke-miterlimit:1.45; font-family:sans-serif; stroke-linecap:butt;" transform="matrix(1,0,0,1,388,500)">
      <rect x="322.5" y="-49.0625" width="55" style="clip-path:url(#clipPath2); fill:none;" height="20"/>
    </g>
    <g style="fill:rgb(204,204,255); font-family:sans-serif; stroke:rgb(204,204,255);" transform="matrix(1,0,0,1,388,500)">
      <rect x="-372.8125" y="104.0625" width="55" style="clip-path:url(#clipPath2); stroke:none;" height="20"/>
      <text x="-362.3125" y="118.2188" style="clip-path:url(#clipPath2); fill:black; stroke:none;" xml:space="preserve">19(4)</text>
    </g>
    <g style="stroke-miterlimit:1.45; font-family:sans-serif; stroke-linecap:butt;" transform="matrix(1,0,0,1,388,500)">
      <rect x="-372.8125" y="104.0625" width="55" style="clip-path:url(#clipPath2); fill:none;" height="20"/>
    </g>
    <g style="fill:rgb(204,204,255); font-family:sans-serif; stroke:rgb(204,204,255);" transform="matrix(1,0,0,1,388,500)">
      <rect x="-180.625" y="225.9375" width="55" style="clip-path:url(#clipPath2); stroke:none;" height="20"/>
      <text x="-170.125" y="240.0938" style="clip-path:url(#clipPath2); fill:black; stroke:none;" xml:space="preserve">18(7)</text>
    </g>
    <g style="stroke-miterlimit:1.45; font-family:sans-serif; stroke-linecap:butt;" transform="matrix(1,0,0,1,388,500)">
      <rect x="-180.625" y="225.9375" width="55" style="clip-path:url(#clipPath2); fill:none;" height="20"/>
    </g>
    <g style="fill:rgb(204,204,255); font-family:sans-serif; stroke:rgb(204,204,255);" transform="matrix(1,0,0,1,388,500)">
      <rect x="74.0625" y="224.375" width="55" style="clip-path:url(#clipPath2); stroke:none;" height="20"/>
      <text x="84.5625" y="238.5312" style="clip-path:url(#clipPath2); fill:black; stroke:none;" xml:space="preserve">17(6)</text>
    </g>
    <g style="stroke-miterlimit:1.45; font-family:sans-serif; stroke-linecap:butt;" transform="matrix(1,0,0,1,388,500)">
      <rect x="74.0625" y="224.375" width="55" style="clip-path:url(#clipPath2); fill:none;" height="20"/>
    </g>
    <g style="fill:rgb(204,204,255); font-family:sans-serif; stroke:rgb(204,204,255);" transform="matrix(1,0,0,1,388,500)">
      <rect x="183.4375" y="229.0625" width="55" style="clip-path:url(#clipPath2); stroke:none;" height="20"/>
      <text x="193.9375" y="243.2188" style="clip-path:url(#clipPath2); fill:black; stroke:none;" xml:space="preserve">16(3)</text>
    </g>
    <g style="stroke-miterlimit:1.45; font-family:sans-serif; stroke-linecap:butt;" transform="matrix(1,0,0,1,388,500)">
      <rect x="183.4375" y="229.0625" width="55" style="clip-path:url(#clipPath2); fill:none;" height="20"/>
    </g>
    <g style="fill:rgb(204,204,255); font-family:sans-serif; stroke:rgb(204,204,255);" transform="matrix(1,0,0,1,388,500)">
      <rect x="-124.375" y="108.75" width="55" style="clip-path:url(#clipPath2); stroke:none;" height="20"/>
      <text x="-113.875" y="122.9062" style="clip-path:url(#clipPath2); fill:black; stroke:none;" xml:space="preserve">15(9)</text>
    </g>
    <g style="stroke-miterlimit:1.45; font-family:sans-serif; stroke-linecap:butt;" transform="matrix(1,0,0,1,388,500)">
      <rect x="-124.375" y="108.75" width="55" style="clip-path:url(#clipPath2); fill:none;" height="20"/>
    </g>
    <g style="fill:rgb(204,204,255); font-family:sans-serif; stroke:rgb(204,204,255);" transform="matrix(1,0,0,1,388,500)">
      <rect x="217.8125" y="102.5" width="55" style="clip-path:url(#clipPath2); stroke:none;" height="20"/>
      <text x="228.3125" y="116.6562" style="clip-path:url(#clipPath2); fill:black; stroke:none;" xml:space="preserve">14(2)</text>
    </g>
    <g style="stroke-miterlimit:1.45; font-family:sans-serif; stroke-linecap:butt;" transform="matrix(1,0,0,1,388,500)">
      <rect x="217.8125" y="102.5" width="55" style="clip-path:url(#clipPath2); fill:none;" height="20"/>
    </g>
    <g style="fill:rgb(204,204,255); font-family:sans-serif; stroke:rgb(204,204,255);" transform="matrix(1,0,0,1,388,500)">
      <rect x="-235.3125" y="108.75" width="55" style="clip-path:url(#clipPath2); stroke:none;" height="20"/>
      <text x="-224.8125" y="122.9062" style="clip-path:url(#clipPath2); fill:black; stroke:none;" xml:space="preserve">13(8)</text>
    </g>
    <g style="stroke-miterlimit:1.45; font-family:sans-serif; stroke-linecap:butt;" transform="matrix(1,0,0,1,388,500)">
      <rect x="-235.3125" y="108.75" width="55" style="clip-path:url(#clipPath2); fill:none;" height="20"/>
    </g>
    <g style="fill:rgb(204,204,255); font-family:sans-serif; stroke:rgb(204,204,255);" transform="matrix(1,0,0,1,388,500)">
      <rect x="300.625" y="16.5625" width="55" style="clip-path:url(#clipPath2); stroke:none;" height="20"/>
      <text x="311.125" y="30.7188" style="clip-path:url(#clipPath2); fill:black; stroke:none;" xml:space="preserve">12(7)</text>
    </g>
    <g style="stroke-miterlimit:1.45; font-family:sans-serif; stroke-linecap:butt;" transform="matrix(1,0,0,1,388,500)">
      <rect x="300.625" y="16.5625" width="55" style="clip-path:url(#clipPath2); fill:none;" height="20"/>
    </g>
    <g style="fill:rgb(204,204,255); font-family:sans-serif; stroke:rgb(204,204,255);" transform="matrix(1,0,0,1,388,500)">
      <rect x="-4.0625" y="97.8125" width="55" style="clip-path:url(#clipPath2); stroke:none;" height="20"/>
      <text x="6.4375" y="111.9688" style="clip-path:url(#clipPath2); fill:black; stroke:none;" xml:space="preserve">11(2)</text>
    </g>
    <g style="stroke-miterlimit:1.45; font-family:sans-serif; stroke-linecap:butt;" transform="matrix(1,0,0,1,388,500)">
      <rect x="-4.0625" y="97.8125" width="55" style="clip-path:url(#clipPath2); fill:none;" height="20"/>
    </g>
    <g style="fill:rgb(204,204,255); font-family:sans-serif; stroke:rgb(204,204,255);" transform="matrix(1,0,0,1,388,500)">
      <rect x="-158.75" y="-10" width="55" style="clip-path:url(#clipPath2); stroke:none;" height="20"/>
      <text x="-148.25" y="4.1562" style="clip-path:url(#clipPath2); fill:black; stroke:none;" xml:space="preserve">10(4)</text>
    </g>
    <g style="stroke-miterlimit:1.45; font-family:sans-serif; stroke-linecap:butt;" transform="matrix(1,0,0,1,388,500)">
      <rect x="-158.75" y="-10" width="55" style="clip-path:url(#clipPath2); fill:none;" height="20"/>
    </g>
    <g style="fill:rgb(204,204,255); font-family:sans-serif; stroke:rgb(204,204,255);" transform="matrix(1,0,0,1,388,500)">
      <rect x="296.3125" y="-247.5" width="48" style="clip-path:url(#clipPath2); stroke:none;" height="20"/>
      <text x="307.3125" y="-233.3438" style="clip-path:url(#clipPath2); fill:black; stroke:none;" xml:space="preserve">9(6)</text>
    </g>
    <g style="stroke-miterlimit:1.45; font-family:sans-serif; stroke-linecap:butt;" transform="matrix(1,0,0,1,388,500)">
      <rect x="296.3125" y="-247.5" width="48" style="clip-path:url(#clipPath2); fill:none;" height="20"/>
    </g>
    <g style="fill:rgb(204,204,255); font-family:sans-serif; stroke:rgb(204,204,255);" transform="matrix(1,0,0,1,388,500)">
      <rect x="-25.5625" y="-253.75" width="48" style="clip-path:url(#clipPath2); stroke:none;" height="20"/>
      <text x="-14.5625" y="-239.5938" style="clip-path:url(#clipPath2); fill:black; stroke:none;" xml:space="preserve">8(4)</text>
    </g>
    <g style="stroke-miterlimit:1.45; font-family:sans-serif; stroke-linecap:butt;" transform="matrix(1,0,0,1,388,500)">
      <rect x="-25.5625" y="-253.75" width="48" style="clip-path:url(#clipPath2); fill:none;" height="20"/>
    </g>
    <g style="fill:rgb(204,204,255); font-family:sans-serif; stroke:rgb(204,204,255);" transform="matrix(1,0,0,1,388,500)">
      <rect x="-284.9375" y="-67.8125" width="48" style="clip-path:url(#clipPath2); stroke:none;" height="20"/>
      <text x="-273.9375" y="-53.6562" style="clip-path:url(#clipPath2); fill:black; stroke:none;" xml:space="preserve">7(8)</text>
    </g>
    <g style="stroke-miterlimit:1.45; font-family:sans-serif; stroke-linecap:butt;" transform="matrix(1,0,0,1,388,500)">
      <rect x="-284.9375" y="-67.8125" width="48" style="clip-path:url(#clipPath2); fill:none;" height="20"/>
    </g>
    <g style="fill:rgb(204,204,255); font-family:sans-serif; stroke:rgb(204,204,255);" transform="matrix(1,0,0,1,388,500)">
      <rect x="152.5625" y="-247.5" width="48" style="clip-path:url(#clipPath2); stroke:none;" height="20"/>
      <text x="163.5625" y="-233.3438" style="clip-path:url(#clipPath2); fill:black; stroke:none;" xml:space="preserve">6(5)</text>
    </g>
    <g style="stroke-miterlimit:1.45; font-family:sans-serif; stroke-linecap:butt;" transform="matrix(1,0,0,1,388,500)">
      <rect x="152.5625" y="-247.5" width="48" style="clip-path:url(#clipPath2); fill:none;" height="20"/>
    </g>
    <g style="fill:rgb(204,204,255); font-family:sans-serif; stroke:rgb(204,204,255);" transform="matrix(1,0,0,1,388,500)">
      <rect x="-347.4375" y="-213.125" width="48" style="clip-path:url(#clipPath2); stroke:none;" height="20"/>
      <text x="-336.4375" y="-198.9688" style="clip-path:url(#clipPath2); fill:black; stroke:none;" xml:space="preserve">5(7)</text>
    </g>
    <g style="stroke-miterlimit:1.45; font-family:sans-serif; stroke-linecap:butt;" transform="matrix(1,0,0,1,388,500)">
      <rect x="-347.4375" y="-213.125" width="48" style="clip-path:url(#clipPath2); fill:none;" height="20"/>
    </g>
    <g style="fill:rgb(204,204,255); font-family:sans-serif; stroke:rgb(204,204,255);" transform="matrix(1,0,0,1,388,500)">
      <rect x="357.25" y="-400.625" width="48" style="clip-path:url(#clipPath2); stroke:none;" height="20"/>
      <text x="368.25" y="-386.4688" style="clip-path:url(#clipPath2); fill:black; stroke:none;" xml:space="preserve">4(8)</text>
    </g>
    <g style="stroke-miterlimit:1.45; font-family:sans-serif; stroke-linecap:butt;" transform="matrix(1,0,0,1,388,500)">
      <rect x="357.25" y="-400.625" width="48" style="clip-path:url(#clipPath2); fill:none;" height="20"/>
    </g>
    <g style="fill:rgb(204,204,255); font-family:sans-serif; stroke:rgb(204,204,255);" transform="matrix(1,0,0,1,388,500)">
      <rect x="94.75" y="-403.75" width="48" style="clip-path:url(#clipPath2); stroke:none;" height="20"/>
      <text x="105.75" y="-389.5938" style="clip-path:url(#clipPath2); fill:black; stroke:none;" xml:space="preserve">3(3)</text>
    </g>
    <g style="stroke-miterlimit:1.45; font-family:sans-serif; stroke-linecap:butt;" transform="matrix(1,0,0,1,388,500)">
      <rect x="94.75" y="-403.75" width="48" style="clip-path:url(#clipPath2); fill:none;" height="20"/>
    </g>
    <g style="fill:rgb(204,204,255); font-family:sans-serif; stroke:rgb(204,204,255);" transform="matrix(1,0,0,1,388,500)">
      <rect x="-144.3125" y="-406.875" width="48" style="clip-path:url(#clipPath2); stroke:none;" height="20"/>
      <text x="-133.3125" y="-392.7188" style="clip-path:url(#clipPath2); fill:black; stroke:none;" xml:space="preserve">2(4)</text>
    </g>
    <g style="stroke-miterlimit:1.45; font-family:sans-serif; stroke-linecap:butt;" transform="matrix(1,0,0,1,388,500)">
      <rect x="-144.3125" y="-406.875" width="48" style="clip-path:url(#clipPath2); fill:none;" height="20"/>
    </g>
    <g style="fill:rgb(204,204,255); font-family:sans-serif; stroke:rgb(204,204,255);" transform="matrix(1,0,0,1,388,500)">
      <rect x="-366.1875" y="-420.9375" width="48" style="clip-path:url(#clipPath2); stroke:none;" height="20"/>
      <text x="-355.1875" y="-406.7812" style="clip-path:url(#clipPath2); fill:black; stroke:none;" xml:space="preserve">1(5)</text>
    </g>
    <g style="stroke-miterlimit:1.45; font-family:sans-serif; stroke-linecap:butt;" transform="matrix(1,0,0,1,388,500)">
      <rect x="-366.1875" y="-420.9375" width="48" style="clip-path:url(#clipPath2); fill:none;" height="20"/>
    </g>
    <g style="fill:rgb(204,204,255); font-family:sans-serif; stroke:rgb(204,204,255);" transform="matrix(1,0,0,1,388,500)">
      <rect x="-14.1875" y="-484.9375" width="48" style="clip-path:url(#clipPath2); stroke:none;" height="20"/>
      <text x="-3.1875" y="-470.7812" style="clip-path:url(#clipPath2); fill:black; stroke:none;" xml:space="preserve">0(1)</text>
    </g>
    <g style="stroke-miterlimit:1.45; font-family:sans-serif; stroke-linecap:butt;" transform="matrix(1,0,0,1,388,500)">
      <rect x="-14.1875" y="-484.9375" width="48" style="clip-path:url(#clipPath2); fill:none;" height="20"/>
      <path d="M236.1093 122.5 L19.3082 358.0718" style="fill:none; clip-path:url(#clipPath2); stroke:rgb(204,204,255);"/>
      <path d="M13.8907 363.9583 L25.696 358.5145 L19.9853 357.336 L18.3378 351.7426 Z" style="fill:rgb(204,204,255); clip-path:url(#clipPath2); stroke:none;"/>
      <path d="M-92.8954 128.75 L-2.2501 356.5253" style="fill:none; clip-path:url(#clipPath2); stroke:rgb(204,204,255);"/>
      <path d="M0.7079 363.9583 L0.9165 350.96 L-2.6199 355.5962 L-8.3748 354.6576 Z" style="fill:rgb(204,204,255); clip-path:url(#clipPath2); stroke:none;"/>
      <path d="M195.6479 249.0625 L26.6722 359.5794" style="fill:none; clip-path:url(#clipPath2); stroke:rgb(204,204,255);"/>
      <path d="M19.9771 363.9583 L32.7566 361.5745 L27.5091 359.0321 L27.283 353.2055 Z" style="fill:rgb(204,204,255); clip-path:url(#clipPath2); stroke:none;"/>
      <path d="M94.6222 244.375 L16.1891 357.3861" style="fill:none; clip-path:url(#clipPath2); stroke:rgb(204,204,255);"/>
      <path d="M11.6278 363.9583 L22.5774 356.9508 L16.7593 356.5646 L14.3621 351.2491 Z" style="fill:rgb(204,204,255); clip-path:url(#clipPath2); stroke:none;"/>
      <path d="M-141.691 245.9375 L-12.7683 358.6917" style="fill:none; clip-path:url(#clipPath2); stroke:rgb(204,204,255);"/>
      <path d="M-6.7465 363.9583 L-12.4876 352.2947 L-13.521 358.0334 L-19.0709 359.8221 Z" style="fill:rgb(204,204,255); clip-path:url(#clipPath2); stroke:none;"/>
      <path d="M-331.8456 124.0625 L-15.2023 359.189" style="fill:none; clip-path:url(#clipPath2); stroke:rgb(204,204,255);"/>
      <path d="M-8.7794 363.9583 L-15.4329 352.79 L-16.0052 358.5928 L-21.3946 360.8186 Z" style="fill:rgb(204,204,255); clip-path:url(#clipPath2); stroke:none;"/>
      <path d="M341.6393 -29.0625 L18.1795 357.8208" style="fill:none; clip-path:url(#clipPath2); stroke:rgb(204,204,255);"/>
      <path d="M13.0482 363.9583 L24.5812 357.9592 L18.8209 357.0536 L16.9093 351.545 Z" style="fill:rgb(204,204,255); clip-path:url(#clipPath2); stroke:none;"/>
      <path d="M-203.1458 128.75 L-161.1747 218.688" style="fill:none; clip-path:url(#clipPath2); stroke:rgb(204,204,255);"/>
      <path d="M-157.7917 225.9375 L-158.3354 212.9489 L-161.5976 217.7818 L-167.3972 217.1777 Z" style="fill:rgb(204,204,255); clip-path:url(#clipPath2); stroke:none;"/>
      <path d="M185.3027 -227.5 L335.9952 -55.0861" style="fill:none; clip-path:url(#clipPath2); stroke:rgb(204,204,255);"/>
      <path d="M341.2599 -49.0625 L337.1276 -61.3882 L335.3371 -55.839 L329.5981 -54.8074 Z" style="fill:rgb(204,204,255); clip-path:url(#clipPath2); stroke:none;"/>
      <path d="M321.8086 -227.5 L347.3203 -56.9744" style="fill:none; clip-path:url(#clipPath2); stroke:rgb(204,204,255);"/>
      <path d="M348.5039 -49.0625 L351.6734 -61.6702 L347.1723 -57.9634 L341.7834 -60.1906 Z" style="fill:rgb(204,204,255); clip-path:url(#clipPath2); stroke:none;"/>
      <path d="M15.6131 -233.75 L325.9109 -53.0877" style="fill:none; clip-path:url(#clipPath2); stroke:rgb(204,204,255);"/>
      <path d="M332.8244 -49.0625 L324.9698 -59.4213 L325.0467 -53.5909 L319.9383 -50.7794 Z" style="fill:rgb(204,204,255); clip-path:url(#clipPath2); stroke:none;"/>
      <path d="M-150.0171 10 L-319.4851 100.3005" style="fill:none; clip-path:url(#clipPath2); stroke:rgb(204,204,255);"/>
      <path d="M-326.5454 104.0625 L-313.6037 102.8321 L-318.6026 99.8302 L-318.3063 94.0068 Z" style="fill:rgb(204,204,255); clip-path:url(#clipPath2); stroke:none;"/>
      <path d="M315.1507 -227.5 L13.5188 356.8495" style="fill:none; clip-path:url(#clipPath2); stroke:rgb(204,204,255);"/>
      <path d="M9.8493 363.9583 L19.7965 355.5885 L13.9775 355.9609 L10.9105 351.0017 Z" style="fill:rgb(204,204,255); clip-path:url(#clipPath2); stroke:none;"/>
      <path d="M74.0625 234.5437 L-117.6252 235.7197" style="fill:none; clip-path:url(#clipPath2); stroke:rgb(204,204,255);"/>
      <path d="M-125.625 235.7688 L-113.5946 240.6951 L-116.6252 235.7136 L-113.6559 230.6953 Z" style="fill:rgb(204,204,255); clip-path:url(#clipPath2); stroke:none;"/>
      <path d="M22.733 117.8125 L5.9542 355.9781" style="fill:none; clip-path:url(#clipPath2); stroke:rgb(204,204,255);"/>
      <path d="M5.392 363.9583 L11.2229 352.3394 L6.0245 354.9806 L1.2477 351.6366 Z" style="fill:rgb(204,204,255); clip-path:url(#clipPath2); stroke:none;"/>
      <path d="M318.4886 36.5625 L260.5 96.7394" style="fill:none; clip-path:url(#clipPath2); stroke:rgb(204,204,255);"/>
      <path d="M254.9489 102.5 L266.876 97.3285 L261.1939 96.0193 L259.6752 90.3896 Z" style="fill:rgb(204,204,255); clip-path:url(#clipPath2); stroke:none;"/>
      <path d="M-115.1037 -386.875 L202.0329 221.9673" style="fill:none; clip-path:url(#clipPath2); stroke:rgb(204,204,255);"/>
      <path d="M205.7287 229.0625 L204.6195 216.1099 L201.5709 221.0804 L195.7505 220.7296 Z" style="fill:rgb(204,204,255); clip-path:url(#clipPath2); stroke:none;"/>
      <path d="M5.3673 -233.75 L233.826 95.9245" style="fill:none; clip-path:url(#clipPath2); stroke:rgb(204,204,255);"/>
      <path d="M238.3827 102.5 L235.6573 89.7889 L233.2564 95.1026 L227.438 95.4847 Z" style="fill:rgb(204,204,255); clip-path:url(#clipPath2); stroke:none;"/>
      <path d="M-128.3553 10 L-101.9942 101.0655" style="fill:none; clip-path:url(#clipPath2); stroke:rgb(204,204,255);"/>
      <path d="M-99.7697 108.75 L-98.3036 95.8329 L-102.2723 100.1049 L-107.9093 98.6135 Z" style="fill:rgb(204,204,255); clip-path:url(#clipPath2); stroke:none;"/>
      <path d="M177.2838 -227.5 L209.6406 221.0832" style="fill:none; clip-path:url(#clipPath2); stroke:rgb(204,204,255);"/>
      <path d="M210.2162 229.0625 L214.3399 216.7339 L209.5687 220.0858 L204.3658 217.4533 Z" style="fill:rgb(204,204,255); clip-path:url(#clipPath2); stroke:none;"/>
      <path d="M-120.831 -386.875 L-152.1922 217.9482" style="fill:none; clip-path:url(#clipPath2); stroke:rgb(204,204,255);"/>
      <path d="M-152.6065 225.9375 L-146.9918 214.2125 L-152.1405 216.9496 L-156.9784 213.6947 Z" style="fill:rgb(204,204,255); clip-path:url(#clipPath2); stroke:none;"/>
      <path d="M37.7232 117.8125 L190.0979 224.4748" style="fill:none; clip-path:url(#clipPath2); stroke:rgb(204,204,255);"/>
      <path d="M196.6518 229.0625 L189.6883 218.0848 L189.2787 223.9013 L183.9537 226.2771 Z" style="fill:rgb(204,204,255); clip-path:url(#clipPath2); stroke:none;"/>
      <path d="M300.625 32.5276 L-61.5568 111.0891" style="fill:none; clip-path:url(#clipPath2); stroke:rgb(204,204,255);"/>
      <path d="M-69.375 112.7849 L-56.5878 115.1275 L-60.5795 110.8771 L-58.7076 105.3548 Z" style="fill:rgb(204,204,255); clip-path:url(#clipPath2); stroke:none;"/>
      <path d="M174.9731 -227.5 L104.4077 216.4742" style="fill:none; clip-path:url(#clipPath2); stroke:rgb(204,204,255);"/>
      <path d="M103.1519 224.375 L109.9736 213.3086 L104.5646 215.4866 L100.0975 211.7389 Z" style="fill:rgb(204,204,255); clip-path:url(#clipPath2); stroke:none;"/>
      <path d="M0.5944 -233.75 L97.7189 216.5548" style="fill:none; clip-path:url(#clipPath2); stroke:rgb(204,204,255);"/>
      <path d="M99.4056 224.375 L101.7632 211.5906 L97.5081 215.5773 L91.988 213.6989 Z" style="fill:rgb(204,204,255); clip-path:url(#clipPath2); stroke:none;"/>
      <path d="M-124.7162 -386.875 L-337.6847 96.741" style="fill:none; clip-path:url(#clipPath2); stroke:rgb(204,204,255);"/>
      <path d="M-340.9088 104.0625 L-331.4966 95.0953 L-337.2816 95.8258 L-340.6485 91.0651 Z" style="fill:rgb(204,204,255); clip-path:url(#clipPath2); stroke:none;"/>
      <path d="M-236.9375 -54.3748 L292.7058 21.4892" style="fill:none; clip-path:url(#clipPath2); stroke:rgb(204,204,255);"/>
      <path d="M300.625 22.6235 L289.4552 15.9726 L291.7159 21.3474 L288.0373 25.8715 Z" style="fill:rgb(204,204,255); clip-path:url(#clipPath2); stroke:none;"/>
      <path d="M10.634 -233.75 L309.742 11.4902" style="fill:none; clip-path:url(#clipPath2); stroke:rgb(204,204,255);"/>
      <path d="M315.9285 16.5625 L309.819 5.0876 L308.9687 10.8562 L303.4786 12.8206 Z" style="fill:rgb(204,204,255); clip-path:url(#clipPath2); stroke:none;"/>
      <path d="M-116.9022 10 L2.5265 93.2382" style="fill:none; clip-path:url(#clipPath2); stroke:rgb(204,204,255);"/>
      <path d="M9.0897 97.8125 L2.1039 86.849 L1.7061 92.6664 L-3.6141 95.053 Z" style="fill:rgb(204,204,255); clip-path:url(#clipPath2); stroke:none;"/>
      <path d="M172.1281 -227.5 L31.1149 90.4993" style="fill:none; clip-path:url(#clipPath2); stroke:rgb(204,204,255);"/>
      <path d="M27.8719 97.8125 L37.3071 88.8695 L31.5202 89.5851 L28.1656 84.8158 Z" style="fill:rgb(204,204,255); clip-path:url(#clipPath2); stroke:none;"/>
      <path d="M-326.8661 -400.9375 L306.1042 12.19" style="fill:none; clip-path:url(#clipPath2); stroke:rgb(204,204,255);"/>
      <path d="M312.8036 16.5625 L305.4874 5.8166 L305.2668 11.6434 L300.0218 14.1908 Z" style="fill:rgb(204,204,255); clip-path:url(#clipPath2); stroke:none;"/>
      <path d="M-137.6974 10 L-197.0301 102.0263" style="fill:none; clip-path:url(#clipPath2); stroke:rgb(204,204,255);"/>
      <path d="M-201.3651 108.75 L-190.6604 101.3739 L-196.4883 101.1859 L-199.0649 95.9551 Z" style="fill:rgb(204,204,255); clip-path:url(#clipPath2); stroke:none;"/>
      <path d="M-257.9286 -47.8125 L-213.1264 101.0893" style="fill:none; clip-path:url(#clipPath2); stroke:rgb(204,204,255);"/>
      <path d="M-210.8214 108.75 L-209.4909 95.8183 L-213.4145 100.1317 L-219.0668 98.6995 Z" style="fill:rgb(204,204,255); clip-path:url(#clipPath2); stroke:none;"/>
      <path d="M371.8635 -380.625 L-82.0134 102.9171" style="fill:none; clip-path:url(#clipPath2); stroke:rgb(204,204,255);"/>
      <path d="M-87.4885 108.75 L-75.6303 103.4225 L-81.329 102.1879 L-82.9214 96.5786 Z" style="fill:rgb(204,204,255); clip-path:url(#clipPath2); stroke:none;"/>
      <path d="M-337.5562 -400.9375 L-104.8682 101.4907" style="fill:none; clip-path:url(#clipPath2); stroke:rgb(204,204,255);"/>
      <path d="M-101.5063 108.75 L-102.0122 95.7598 L-105.2885 100.5833 L-111.0863 99.9623 Z" style="fill:rgb(204,204,255); clip-path:url(#clipPath2); stroke:none;"/>
      <path d="M-319.8453 -193.125 L-214.1093 101.221" style="fill:none; clip-path:url(#clipPath2); stroke:rgb(204,204,255);"/>
      <path d="M-211.4047 108.75 L-210.756 95.7662 L-214.4474 100.2799 L-220.1672 99.1469 Z" style="fill:rgb(204,204,255); clip-path:url(#clipPath2); stroke:none;"/>
      <path d="M-318.1875 -404.6545 L288.5733 -245.8091" style="fill:none; clip-path:url(#clipPath2); stroke:rgb(204,204,255);"/>
      <path d="M296.3125 -243.783 L285.97 -251.6591 L287.6059 -246.0623 L283.4374 -241.9851 Z" style="fill:rgb(204,204,255); clip-path:url(#clipPath2); stroke:none;"/>
      <path d="M110.7292 -383.75 L11.4638 -259.9906" style="fill:none; clip-path:url(#clipPath2); stroke:rgb(204,204,255);"/>
      <path d="M6.4583 -253.75 L17.8669 -259.9825 L12.0895 -260.7707 L10.0662 -266.2393 Z" style="fill:rgb(204,204,255); clip-path:url(#clipPath2); stroke:none;"/>
      <path d="M367.8827 -380.625 L196.3357 -252.2922" style="fill:none; clip-path:url(#clipPath2); stroke:rgb(204,204,255);"/>
      <path d="M189.9298 -247.5 L202.5337 -250.6846 L197.1364 -252.8912 L196.5435 -258.6919 Z" style="fill:rgb(204,204,255); clip-path:url(#clipPath2); stroke:none;"/>
      <path d="M-112.5574 -386.875 L-14.2202 -260.0717" style="fill:none; clip-path:url(#clipPath2); stroke:rgb(204,204,255);"/>
      <path d="M-9.3176 -253.75 L-12.7204 -266.2968 L-14.833 -260.862 L-20.6226 -260.1685 Z" style="fill:rgb(204,204,255); clip-path:url(#clipPath2); stroke:none;"/>
      <path d="M-319.1364 -193.125 L-268.3995 -75.1616" style="fill:none; clip-path:url(#clipPath2); stroke:rgb(204,204,255);"/>
      <path d="M-265.2386 -67.8125 L-265.3867 -80.8117 L-268.7946 -76.0802 L-274.5731 -76.8605 Z" style="fill:rgb(204,204,255); clip-path:url(#clipPath2); stroke:none;"/>
      <path d="M361.9542 -380.625 L-234.5389 -71.4935" style="fill:none; clip-path:url(#clipPath2); stroke:rgb(204,204,255);"/>
      <path d="M-241.6417 -67.8125 L-228.6869 -68.8948 L-233.651 -71.9537 L-233.2881 -77.7733 Z" style="fill:rgb(204,204,255); clip-path:url(#clipPath2); stroke:none;"/>
      <path d="M-335.1393 -400.9375 L11.7805 91.2735" style="fill:none; clip-path:url(#clipPath2); stroke:rgb(204,204,255);"/>
      <path d="M16.3893 97.8125 L13.563 85.1235 L11.2044 90.4561 L5.3892 90.8845 Z" style="fill:rgb(204,204,255); clip-path:url(#clipPath2); stroke:none;"/>
      <path d="M-238.5051 -47.8125 L-160.9893 -13.2573" style="fill:none; clip-path:url(#clipPath2); stroke:rgb(204,204,255);"/>
      <path d="M-153.6824 -10 L-162.6069 -19.4527 L-161.9026 -13.6644 L-166.6785 -10.3191 Z" style="fill:rgb(204,204,255); clip-path:url(#clipPath2); stroke:none;"/>
      <path d="M-96.3125 -388.1942 L288.7895 -248.9019" style="fill:none; clip-path:url(#clipPath2); stroke:rgb(204,204,255);"/>
      <path d="M296.3125 -246.1809 L286.7287 -254.9644 L287.8491 -249.2421 L283.3273 -245.5606 Z" style="fill:rgb(204,204,255); clip-path:url(#clipPath2); stroke:none;"/>
      <path d="M377.2704 -380.625 L327.2501 -254.933" style="fill:none; clip-path:url(#clipPath2); stroke:rgb(204,204,255);"/>
      <path d="M324.2921 -247.5 L333.3748 -256.8008 L327.6199 -255.8622 L324.0835 -260.4983 Z" style="fill:rgb(204,204,255); clip-path:url(#clipPath2); stroke:none;"/>
      <path d="M-337.0544 -400.9375 L-140.0364 -17.1171" style="fill:none; clip-path:url(#clipPath2); stroke:rgb(204,204,255);"/>
      <path d="M-136.3831 -10 L-137.4148 -22.959 L-140.493 -18.0068 L-146.3112 -18.3924 Z" style="fill:rgb(204,204,255); clip-path:url(#clipPath2); stroke:none;"/>
      <path d="M33.8125 -469.4897 L349.4485 -397.8436" style="fill:none; clip-path:url(#clipPath2); stroke:rgb(204,204,255);"/>
      <path d="M357.25 -396.0728 L346.6545 -403.605 L348.4733 -398.065 L344.4409 -393.8531 Z" style="fill:rgb(204,204,255); clip-path:url(#clipPath2); stroke:none;"/>
      <path d="M23.2305 -464.9375 L98.9174 -408.5305" style="fill:none; clip-path:url(#clipPath2); stroke:rgb(204,204,255);"/>
      <path d="M105.332 -403.75 L98.698 -414.9299 L98.1156 -409.1281 L92.7223 -406.9117 Z" style="fill:rgb(204,204,255); clip-path:url(#clipPath2); stroke:none;"/>
      <path d="M-6.8568 -464.9375 L-96.7829 -410.9905" style="fill:none; clip-path:url(#clipPath2); stroke:rgb(204,204,255);"/>
      <path d="M-103.6432 -406.875 L-90.7806 -408.7606 L-95.9254 -411.5049 L-95.925 -417.3359 Z" style="fill:rgb(204,204,255); clip-path:url(#clipPath2); stroke:none;"/>
      <path d="M122.45 -383.75 L170.0864 -255.0029" style="fill:none; clip-path:url(#clipPath2); stroke:rgb(204,204,255);"/>
      <path d="M172.8625 -247.5 L173.3877 -260.4894 L169.7394 -255.9408 L164.0091 -257.0193 Z" style="fill:rgb(204,204,255); clip-path:url(#clipPath2); stroke:none;"/>
      <path d="M357.25 -384.2392 L-291.7065 -211.5678" style="fill:none; clip-path:url(#clipPath2); stroke:rgb(204,204,255);"/>
      <path d="M-299.4375 -209.5108 L-286.5553 -207.7645 L-290.7401 -211.825 L-289.1266 -217.4282 Z" style="fill:rgb(204,204,255); clip-path:url(#clipPath2); stroke:none;"/>
      <path d="M95.5533 -383.75 L-292.8943 -216.292" style="fill:none; clip-path:url(#clipPath2); stroke:rgb(204,204,255);"/>
      <path d="M-300.2408 -213.125 L-287.2418 -213.284 L-291.976 -216.6879 L-291.2005 -222.467 Z" style="fill:rgb(204,204,255); clip-path:url(#clipPath2); stroke:none;"/>
      <path d="M-130.7964 -386.875 L-307.1648 -218.6467" style="fill:none; clip-path:url(#clipPath2); stroke:rgb(204,204,255);"/>
      <path d="M-312.9536 -213.125 L-300.8193 -217.7895 L-306.4412 -219.3369 L-307.7214 -225.0256 Z" style="fill:rgb(204,204,255); clip-path:url(#clipPath2); stroke:none;"/>
      <path d="M-341.2852 -400.9375 L-325.0587 -221.0926" style="fill:none; clip-path:url(#clipPath2); stroke:rgb(204,204,255);"/>
      <path d="M-324.3398 -213.125 L-320.4383 -225.5258 L-325.1485 -222.0886 L-330.3979 -224.6272 Z" style="fill:rgb(204,204,255); clip-path:url(#clipPath2); stroke:none;"/>
      <path d="M-14.1875 -470.5739 L-310.3165 -416.7322" style="fill:none; clip-path:url(#clipPath2); stroke:rgb(204,204,255);"/>
      <path d="M-318.1875 -415.3011 L-305.4866 -412.5284 L-309.3327 -416.9111 L-307.2755 -422.3671 Z" style="fill:rgb(204,204,255); clip-path:url(#clipPath2); stroke:none;"/>
      <path d="M10.0468 363.98 L8.9826 363.39 L8.8896 363.4266" style="fill:none; clip-path:url(#clipPath2);"/>
      <path d="M1.4454 366.3564 L14.4428 366.6144 L9.8201 363.0604 L10.7805 357.3091 Z" style="clip-path:url(#clipPath2); stroke:none;"/>
      <rect x="1.25" y="356.875" width="4" style="clip-path:url(#clipPath2); stroke:none;" height="4"/>
      <rect x="7.25" y="362.875" width="4" style="clip-path:url(#clipPath2); stroke:none;" height="4"/>
      <rect x="1.25" y="362.875" width="4" style="clip-path:url(#clipPath2); stroke:none;" height="4"/>
      <rect x="7.25" y="356.875" width="4" style="clip-path:url(#clipPath2); stroke:none;" height="4"/>
    </g>
  </g>
</svg>
